<svg width="131" height="55" viewBox="0 0 131 55" fill="none" xmlns="http://www.w3.org/2000/svg">
<path d="M44.5624 0.681091V39.6774C44.5624 42.3484 42.3493 44.5614 39.6783 44.5614H15.1053C12.4343 44.5614 10.2212 42.3484 10.2212 39.6774V29.6803H0.682007V39.6774C0.682007 47.614 7.16867 54.0243 15.1053 54.0243H39.6783C47.6149 54.0243 54.1016 47.614 54.1016 39.6774V0.681091H44.5624Z" fill="#1B150C"/>
<path d="M44.5621 0.000488281C44.3813 0.000488928 44.208 0.0722848 44.0802 0.200081C43.9524 0.327877 43.8806 0.501205 43.8806 0.681935V39.677C43.8806 41.9715 41.9725 43.8797 39.6779 43.8797H15.1059C12.8113 43.8797 10.9032 41.9715 10.9032 39.677V29.6805C10.9032 29.591 10.8855 29.5024 10.8513 29.4197C10.817 29.337 10.7668 29.2619 10.7036 29.1986C10.6403 29.1354 10.5652 29.0852 10.4825 29.0509C10.3998 29.0167 10.3112 28.9991 10.2217 28.9991H0.681447C0.591958 28.9991 0.503344 29.0167 0.420667 29.0509C0.33799 29.0852 0.262868 29.1354 0.19959 29.1986C0.136311 29.2619 0.0861165 29.337 0.0518709 29.4197C0.0176252 29.5024 -6.38375e-07 29.591 0 29.6805V39.677C0 47.9848 6.80236 54.7059 15.1059 54.7059H39.6779C47.9814 54.7059 54.7823 47.9848 54.7823 39.677V0.681935C54.7823 0.592446 54.7647 0.503835 54.7305 0.421158C54.6962 0.338481 54.646 0.263354 54.5828 0.200075C54.5195 0.136797 54.4444 0.086602 54.3617 0.0523564C54.279 0.0181107 54.1904 0.000487643 54.1009 0.000488281H44.5621ZM45.2435 1.36196H53.4209V39.677C53.4209 47.2423 47.2476 53.343 39.6779 53.343H15.1059C7.53616 53.343 1.36289 47.2423 1.36289 39.677V30.3619H9.54026V39.677C9.54026 42.7243 12.0585 45.2426 15.1059 45.2426H39.6779C42.7252 45.2426 45.2435 42.7243 45.2435 39.677V1.36196Z" fill="url(#paint0_linear)"/>
<path d="M103.295 10.2203H130.005V0.681091H103.295C88.5667 0.681091 76.5854 12.6623 76.5854 27.3909C76.5854 42.1194 88.5667 54.1007 103.295 54.1007H130.005V24.7962H103.295V34.3354H120.466V44.5614H103.295C93.8323 44.5614 86.1247 36.8538 86.1247 27.3909C86.1247 17.928 93.8323 10.2203 103.295 10.2203Z" fill="#1B150C"/>
<path d="M103.295 0.000366211C88.1967 0.000366211 75.9043 12.2928 75.9043 27.3908C75.9043 42.4889 88.1967 54.7827 103.295 54.7827H130.005C130.186 54.7827 130.359 54.7109 130.487 54.5831C130.615 54.4553 130.687 54.282 130.687 54.1013V24.7962C130.687 24.6155 130.615 24.4421 130.487 24.3143C130.359 24.1865 130.186 24.1148 130.005 24.1148H103.295C103.205 24.1148 103.117 24.1324 103.034 24.1666C102.951 24.2009 102.876 24.2511 102.813 24.3143C102.75 24.3776 102.699 24.4527 102.665 24.5354C102.631 24.6181 102.613 24.7067 102.613 24.7962V34.335C102.613 34.4245 102.631 34.5131 102.665 34.5958C102.699 34.6785 102.75 34.7536 102.813 34.8169C102.876 34.8802 102.951 34.9304 103.034 34.9646C103.117 34.9988 103.205 35.0165 103.295 35.0165H119.785V43.8796H103.295C94.2019 43.8796 86.806 36.4837 86.806 27.3908C86.806 18.2979 94.2019 10.9021 103.295 10.9021H130.005C130.186 10.9021 130.359 10.8303 130.487 10.7025C130.615 10.5747 130.687 10.4014 130.687 10.2206V0.681813C130.687 0.501083 130.615 0.327755 130.487 0.199959C130.359 0.0721627 130.186 0.000366858 130.005 0.000366211H103.295ZM103.295 1.36183H129.324V9.5392H103.295C93.4619 9.5392 85.4431 17.5579 85.4431 27.3908C85.4431 37.2237 93.4619 45.2425 103.295 45.2425H120.466C120.556 45.2425 120.644 45.2248 120.727 45.1906C120.81 45.1563 120.885 45.1061 120.948 45.0429C121.012 44.9796 121.062 44.9045 121.096 44.8218C121.13 44.7391 121.148 44.6505 121.148 44.561V34.335C121.148 34.1543 121.076 33.981 120.948 33.8532C120.82 33.7254 120.647 33.6536 120.466 33.6536H103.976V25.4776H129.324V53.4198H103.295C88.9357 53.4198 77.2672 41.7498 77.2672 27.3908C77.2672 13.0318 88.9357 1.36183 103.295 1.36183Z" fill="url(#paint1_linear)"/>
<path d="M89.6346 44.5614L67.2747 0.681091L44.9148 44.5614L40.0308 54.1007H50.7147L55.5988 44.5614L67.2747 21.6673L78.9507 44.5614L83.8348 54.1007H94.5187L89.6346 44.5614Z" fill="#1B150C"/>
<path d="M67.2537 0.000334649C67.1316 0.00417333 67.0129 0.0407302 66.9098 0.106187C66.8067 0.171644 66.7231 0.263596 66.6677 0.372422L44.3083 44.2516L39.4241 53.7905C39.3708 53.8944 39.3452 54.0103 39.3496 54.127C39.354 54.2437 39.3884 54.3574 39.4493 54.457C39.5103 54.5566 39.5959 54.6389 39.6978 54.6959C39.7997 54.753 39.9146 54.7828 40.0314 54.7827H50.715C50.8405 54.7824 50.9634 54.7476 51.0704 54.6819C51.1773 54.6163 51.264 54.5224 51.3209 54.4106L56.2051 44.8718C56.2051 44.8713 56.2051 44.8708 56.2051 44.8703L67.2751 23.1667L78.3436 44.8703C78.3436 44.8708 78.3436 44.8713 78.3436 44.8718L83.2278 54.4106C83.2848 54.5226 83.3717 54.6166 83.4789 54.6823C83.5861 54.748 83.7094 54.7827 83.8351 54.7827H94.5187C94.6355 54.7828 94.7504 54.753 94.8523 54.6959C94.9542 54.6389 95.0398 54.5566 95.1008 54.457C95.1617 54.3574 95.1961 54.2437 95.2005 54.127C95.2049 54.0103 95.1793 53.8944 95.126 53.7905L90.2418 44.2516L67.8824 0.372422C67.8237 0.25712 67.7334 0.160901 67.6221 0.0950104C67.5108 0.0291201 67.383 -0.00371872 67.2537 0.000334649ZM67.2751 2.18296L89.0272 44.8703C89.0277 44.8708 89.0281 44.8713 89.0286 44.8718L93.4053 53.4198H84.2514L79.5582 44.2516L67.8824 21.3576C67.8253 21.2455 67.7384 21.1514 67.6312 21.0857C67.524 21.02 67.4008 20.9852 67.2751 20.9852C67.1493 20.9852 67.0261 21.02 66.9189 21.0857C66.8117 21.1514 66.7248 21.2455 66.6677 21.3576L54.9919 44.2516L50.2988 53.4198H41.1448L45.5215 44.8718C45.5215 44.8713 45.5215 44.8708 45.5215 44.8703L67.2751 2.18296Z" fill="url(#paint2_linear)"/>
<defs>
<linearGradient id="paint0_linear" x1="0.000662766" y1="27.3529" x2="54.783" y2="27.3529" gradientUnits="userSpaceOnUse">
<stop stop-color="#694E1E" stop-opacity="0.992157"/>
<stop offset="0.241338" stop-color="#E5B04D" stop-opacity="0.972549"/>
<stop offset="0.646209" stop-color="#EABE6C" stop-opacity="0.980392"/>
<stop offset="1" stop-color="#856327" stop-opacity="0.988235"/>
</linearGradient>
<linearGradient id="paint1_linear" x1="75.9041" y1="27.3909" x2="130.686" y2="27.3909" gradientUnits="userSpaceOnUse">
<stop stop-color="#694E1E" stop-opacity="0.992157"/>
<stop offset="0.241338" stop-color="#E5B04D" stop-opacity="0.972549"/>
<stop offset="0.646209" stop-color="#EABE6C" stop-opacity="0.980392"/>
<stop offset="1" stop-color="#856327" stop-opacity="0.988235"/>
</linearGradient>
<linearGradient id="paint2_linear" x1="39.3494" y1="27.3909" x2="95.2002" y2="27.3909" gradientUnits="userSpaceOnUse">
<stop stop-color="#694E1E" stop-opacity="0.992157"/>
<stop offset="0.241338" stop-color="#E5B04D" stop-opacity="0.972549"/>
<stop offset="0.646209" stop-color="#ECC377" stop-opacity="0.980392"/>
<stop offset="1" stop-color="#856327" stop-opacity="0.988235"/>
</linearGradient>
</defs>
</svg>
